<?xml version="1.0" encoding="UTF-8" standalone="no"?>
<svg
   xmlns:dc="http://purl.org/dc/elements/1.1/"
   xmlns:cc="http://creativecommons.org/ns#"
   xmlns:rdf="http://www.w3.org/1999/02/22-rdf-syntax-ns#"
   xmlns:svg="http://www.w3.org/2000/svg"
   xmlns="http://www.w3.org/2000/svg"
   xmlns:sodipodi="http://sodipodi.sourceforge.net/DTD/sodipodi-0.dtd"
   xmlns:inkscape="http://www.inkscape.org/namespaces/inkscape"
   width="65px"
   height="65px"
   viewBox="0 0 65 65"
   version="1.1"
   xml:space="preserve"
   style="fill-rule:evenodd;clip-rule:evenodd;stroke-miterlimit:1.41421;"
   id="svg9"
   sodipodi:docname="logo-red.svg"
   inkscape:version="0.92.3 (2405546, 2018-03-11)"><metadata
   id="metadata15"><rdf:RDF><cc:Work
       rdf:about=""><dc:format>image/svg+xml</dc:format><dc:type
         rdf:resource="http://purl.org/dc/dcmitype/StillImage" /></cc:Work></rdf:RDF></metadata><defs
   id="defs13" /><sodipodi:namedview
   pagecolor="#ffffff"
   bordercolor="#666666"
   borderopacity="1"
   objecttolerance="10"
   gridtolerance="10"
   guidetolerance="10"
   inkscape:pageopacity="0"
   inkscape:pageshadow="2"
   inkscape:window-width="1596"
   inkscape:window-height="946"
   id="namedview11"
   showgrid="false"
   inkscape:zoom="3.6307692"
   inkscape:cx="32.5"
   inkscape:cy="32.5"
   inkscape:window-x="0"
   inkscape:window-y="0"
   inkscape:window-maximized="0"
   inkscape:current-layer="svg9" />
    <g
   id="Group"
   transform="matrix(1,0,0,1,4,7.5)"
   fill="#FFFFFF"
   fill-rule="nonzero"
   style="fill:#d43f3a;fill-opacity:1;stroke:#d43f3a;stroke-opacity:1">
        <g
   id="Combined-Shape"
   transform="matrix(1,0,0,1,2,0)"
   style="fill:#d43f3a;fill-opacity:1;stroke:#d43f3a;stroke-opacity:1">
            <path
   d="M56.685,0.319L56.685,49.963L54.114,49.963L54.114,5.013L38.74,37.006L22.778,0.319L25.294,0.319L38.964,31.211L54.114,0.319L56.685,0.319Z"
   style="fill-rule:nonzero;stroke:#d43f3a;stroke-width:2px;fill:#d43f3a;fill-opacity:1;stroke-opacity:1"
   id="path2" />
        </g>
        <g
   id="Line"
   transform="matrix(1,0,0,1,-3,0)"
   style="fill:#d43f3a;fill-opacity:1;stroke:#d43f3a;stroke-opacity:1">
            <path
   d="M3.95,39.785L20.294,0.301L26.01,14.371L23.411,14.371L20.272,6.932L7.714,37.269L35.53,37.269L40.808,49.945L0.066,49.945L1.185,47.429L37.035,47.429L33.853,39.785L3.95,39.785Z"
   style="fill-rule:nonzero;stroke:#d43f3a;stroke-width:2px;fill:#d43f3a;fill-opacity:1;stroke-opacity:1"
   id="path5" />
        </g>
    </g>
</svg>