<?xml version="1.0" encoding="UTF-8" standalone="no"?>
<!DOCTYPE svg PUBLIC "-//W3C//DTD SVG 1.1//EN" "http://www.w3.org/Graphics/SVG/1.1/DTD/svg11.dtd">
<svg width="65px" height="65px" viewBox="0 0 65 65" version="1.1" xmlns="http://www.w3.org/2000/svg" xmlns:xlink="http://www.w3.org/1999/xlink" xml:space="preserve" xmlns:serif="http://www.serif.com/" style="fill-rule:evenodd;clip-rule:evenodd;stroke-miterlimit:1.41421;">
    <g id="Group" transform="matrix(1,0,0,1,4,7.5)" fill="#FFFFFF" fill-rule="nonzero">
        <g id="Combined-Shape" transform="matrix(1,0,0,1,2,0)">
            <path d="M56.685,0.319L56.685,49.963L54.114,49.963L54.114,5.013L38.74,37.006L22.778,0.319L25.294,0.319L38.964,31.211L54.114,0.319L56.685,0.319Z" style="fill-rule:nonzero;stroke:white;stroke-width:2px;"/>
        </g>
        <g id="Line" transform="matrix(1,0,0,1,-3,0)">
            <path d="M3.95,39.785L20.294,0.301L26.01,14.371L23.411,14.371L20.272,6.932L7.714,37.269L35.53,37.269L40.808,49.945L0.066,49.945L1.185,47.429L37.035,47.429L33.853,39.785L3.95,39.785Z" style="fill-rule:nonzero;stroke:white;stroke-width:2px;"/>
        </g>
    </g>
</svg>
